<?xml version="1.0" standalone="no"?>
<!DOCTYPE svg PUBLIC "-//W3C//DTD SVG 20010904//EN"
 "http://www.w3.org/TR/2001/REC-SVG-20010904/DTD/svg10.dtd">
<svg version="1.0" xmlns="http://www.w3.org/2000/svg"
 width="640.000000pt" height="480.000000pt" viewBox="0 0 640.000000 480.000000"
 preserveAspectRatio="xMidYMid meet">
<metadata>
Created by potrace 1.13, written by Peter Selinger 2001-2015
</metadata>
<g transform="translate(0.000000,480.000000) scale(0.100000,-0.100000)"
fill="#000000" stroke="none">
<path d="M4505 2688 c4 -370 8 -674 9 -674 0 -1 52 -5 114 -9 l112 -7 0 681 0
681 -121 0 -122 0 8 -672z"/>
<path d="M5010 2663 l0 -693 85 0 85 0 0 255 0 255 57 0 c134 0 203 86 233
290 34 232 -31 514 -133 572 -15 9 -70 13 -174 13 l-153 0 0 -692z m282 455
c9 -16 13 -72 13 -188 0 -201 -7 -220 -80 -220 l-45 0 0 215 0 215 50 0 c41 0
52 -4 62 -22z"/>
<path d="M210 2620 l0 -730 28 0 c26 0 113 13 169 25 l23 5 2 391 3 392 125
-367 c69 -202 127 -371 130 -376 5 -9 154 2 218 16 l22 4 0 685 0 685 -110 0
-110 0 -2 -405 -3 -405 -136 403 -137 402 -111 3 -111 3 0 -731z"/>
<path d="M1180 2675 l0 -675 23 0 c44 0 522 32 535 35 8 3 12 33 12 106 l0
102 -165 -8 -165 -7 0 171 0 171 140 0 140 0 0 110 0 110 -140 0 -140 0 0 175
0 175 165 0 165 0 0 105 0 105 -285 0 -285 0 0 -675z"/>
<path d="M1980 3250 l0 -100 105 0 105 0 0 -545 0 -545 115 0 115 0 0 545 0
545 120 0 120 0 0 100 0 100 -340 0 -340 0 0 -100z"/>
<path d="M3050 3341 c-94 -31 -169 -91 -209 -166 -20 -39 -21 -52 -21 -467 0
-408 1 -430 21 -483 44 -117 107 -156 266 -163 88 -4 113 -1 173 18 39 13 82
32 96 42 57 45 84 147 84 315 l0 103 -105 0 -105 0 0 -124 c0 -118 -1 -127
-24 -153 -45 -52 -148 -31 -183 38 -10 18 -13 121 -13 399 0 348 2 378 20 417
21 48 45 58 116 50 76 -8 84 -23 84 -149 l0 -108 106 0 107 0 -6 108 c-10 180
-42 248 -141 299 -43 23 -66 27 -146 30 -52 1 -106 -1 -120 -6z"/>
<path d="M3700 2705 l0 -645 23 0 c12 0 137 -7 277 -15 140 -8 258 -15 263
-15 4 0 7 47 7 104 l0 104 -147 7 c-82 3 -154 8 -160 10 -10 4 -13 122 -13
550 l0 545 -125 0 -125 0 0 -645z"/>
<path d="M5865 3330 c-61 -24 -107 -74 -137 -149 -18 -47 -22 -76 -23 -176 0
-185 22 -237 209 -493 69 -95 130 -189 136 -210 21 -78 9 -142 -37 -188 -37
-38 -59 -42 -103 -19 -43 22 -63 69 -64 147 l-1 68 -67 0 -68 0 0 -102 c0
-132 11 -169 68 -230 79 -85 173 -119 255 -94 141 43 208 151 208 336 1 137
-65 307 -166 430 -115 139 -195 287 -195 358 0 81 45 135 107 130 33 -3 40 -8
56 -40 10 -21 21 -62 24 -93 l6 -55 78 0 79 0 0 65 c0 129 -70 279 -151 320
-40 21 -152 19 -214 -5z"/>
</g>
</svg>
